<?xml version="1.0" standalone="no"?><!-- Generator: Gravit.io --><svg xmlns="http://www.w3.org/2000/svg" xmlns:xlink="http://www.w3.org/1999/xlink" style="isolation:isolate" viewBox="441.493 311 26 26" width="26" height="26"><defs><clipPath id="_clipPath_v4gDhjceprZ5cUAjdbpC3eaSYxJipLWG"><rect x="441.493" y="311" width="26" height="26"/></clipPath></defs><g clip-path="url(#_clipPath_v4gDhjceprZ5cUAjdbpC3eaSYxJipLWG)"><path d=" M 442.578 311.027 C 442.891 310.983 443.254 310.973 443.532 311.157 L 443.532 311.157 L 444.61 311.502 L 446.497 312.129 C 446.708 312.164 446.916 312.218 447.114 312.299 C 447.761 312.563 448.098 313.062 448.178 313.782 C 448.254 314.473 448.142 315.154 448.384 315.824 L 448.384 315.824 L 461.656 317.38 L 465.203 317.79 Q 466.539 317.716 467.152 318.395 Q 467.549 318.76 467.484 319.605 Q 466.905 321.898 466.633 324.511 L 466.426 325.721 Q 466.404 326.475 466.011 326.844 Q 465.445 327.399 464.186 327.233 L 461.159 327.233 L 449.193 327.255 C 449.022 327.843 448.936 328.457 448.903 329.07 L 448.903 329.07 L 460.412 329.091 L 463.274 329.091 C 463.692 329.03 464.147 329.01 464.547 329.175 C 465.406 329.527 465.597 330.754 465.003 331.444 C 464.558 331.96 463.841 331.956 463.233 331.857 L 463.233 331.857 L 459.997 331.857 L 446.974 331.857 C 446.231 331.637 445.863 330.972 445.917 330.193 L 445.917 330.193 L 446.456 327.212 Q 446.679 326.602 446.622 325.699 Q 446.388 324.754 446.414 323.538 L 446.331 323.106 C 446.346 322.745 446.329 322.378 446.248 322.026 L 446.248 322.026 L 445.834 317.661 L 445.626 315.457 C 445.676 315.236 445.726 314.904 445.523 314.744 L 445.523 314.744 L 443.324 314.009 C 442.752 313.92 442.177 313.696 441.769 313.253 C 441.255 312.694 441.517 311.644 442.08 311.243 L 442.08 311.243 L 442.578 311.027 Z " fill="rgb(255,255,255)"/><path d=" M 448.965 332.678 Q 450.275 332.588 450.811 333.305 Q 451.452 333.847 451.35 335.163 Q 451.174 336.103 450.541 336.568 Q 450.092 336.964 449.297 337 Q 448.31 336.926 447.824 336.33 Q 447.223 335.79 447.244 334.601 Q 447.368 333.672 447.928 333.197 Q 448.311 332.796 448.965 332.678 Z  M 461.2 332.678 Q 462.659 332.585 463.17 333.478 Q 463.678 334.029 463.585 335.207 Q 463.385 336.057 462.818 336.525 Q 462.368 336.964 461.532 337 Q 460.472 336.917 459.977 336.244 Q 459.42 335.722 459.479 334.558 Q 459.582 333.671 460.122 333.24 Q 460.523 332.815 461.2 332.678 Z " fill-rule="evenodd" fill="rgb(255,255,255)"/></g></svg>