<?xml version="1.0" encoding="UTF-8"?>
<!DOCTYPE svg PUBLIC "-//W3C//DTD SVG 1.1//EN" "http://www.w3.org/Graphics/SVG/1.1/DTD/svg11.dtd">
<!-- Creator: CorelDRAW X8 -->
<svg xmlns="http://www.w3.org/2000/svg" xml:space="preserve" width="267px" height="108px" version="1.1" style="shape-rendering:geometricPrecision; text-rendering:geometricPrecision; image-rendering:optimizeQuality; fill-rule:evenodd; clip-rule:evenodd"
viewBox="0 0 267 108"
 xmlns:xlink="http://www.w3.org/1999/xlink">
 <defs>
  <style type="text/css">
   <![CDATA[
    .fil0 {fill:white;fill-rule:nonzero}
    .fil1 {fill:black;fill-rule:nonzero;fill-opacity:0.501961}
   ]]>
  </style>
 </defs>
 <g id="Layer_x0020_1">
  <metadata id="CorelCorpID_0Corel-Layer"/>
  <g id="_1857612289536">
   <path class="fil0" d="M55 28l-15 0 0 7c-4,-5 -9,-8 -17,-7 -13,0 -23,10 -23,25 0,16 10,26 24,26 7,0 12,-3 16,-8l0 6c0,8 -6,12 -14,12 -7,0 -12,-2 -17,-5l-6 11c6,4 14,7 24,7 17,0 28,-10 28,-25l0 -49zm93 44c0,1 0,3 0,4 0,0 0,-1 0,-1 0,-1 0,-1 0,-1 0,-1 0,-1 0,-2zm-2 2l-1 0 0 0 1 0 0 0zm0 1l-1 2 0 0 0 -2 1 0zm-3 -1l0 0 0 0 0 0 0 0zm3 4l-1 0 0 -1 1 0 0 1zm-119 -11c-7,0 -12,-5 -12,-14 0,-8 5,-14 12,-14 8,0 13,6 13,14 0,9 -5,14 -13,14zm45 -63c-5,0 -8,4 -8,9 0,5 3,8 8,8 5,0 8,-3 8,-8 0,-5 -3,-9 -8,-9zm8 78l0 -54 -16 0 0 54 16 0zm34 -62c2,0 5,0 7,2l5 -11c-4,-3 -9,-4 -14,-4 -11,0 -20,6 -20,18l0 5 -7 0 0 11 7 0 0 41 15 0 0 -41 13 0 0 -11 -13 0 0 -4c0,-4 3,-6 7,-6zm29 49c-2,-1 -3,-3 -3,-6l0 -22 3 0c0,-2 1,-3 1,-5 0,-2 1,-4 1,-6l-5 0 0 -14 -15 0 0 14 -8 0 0 11 8 0 0 25c0,11 7,17 17,17 0,0 1,0 1,0 0,-3 0,-6 -1,-10 1,-1 1,-2 1,-4zm1 -28l2 0c0,0 0,0 0,0 0,-3 1,-6 2,-11l-2 0 -2 11zm0 41l0 0 0 -2c0,1 -1,1 -1,1 0,0 0,0 1,0 0,1 0,1 0,1zm1 0c0,0 1,0 1,0 0,-2 0,-4 0,-7 -1,0 -1,0 -1,0 0,0 0,-1 0,-2 0,-1 0,-2 0,-3 -1,0 -1,1 -1,1 0,2 1,6 1,11z"/>
   <path class="fil0" d="M202 28c-3,0 -6,0 -8,1l-1 1c0,2 -1,4 -2,8 -1,0 -1,1 -1,2 -2,5 -3,9 -3,12 0,0 0,0 0,0 1,0 1,0 1,-1 0,0 2,-4 4,-12 1,0 1,0 1,0 0,1 -1,3 -1,4 0,1 0,2 -1,2 2,-4 6,-6 11,-6 7,0 12,4 12,12l-24 0c-2,7 -4,14 -4,21 0,0 -1,0 -1,0 0,-1 1,-3 1,-5l0 -1c-1,2 -2,6 -2,10 4,4 11,6 19,6 9,0 17,-3 23,-9l-9 -8c-3,3 -8,5 -13,5 -7,0 -12,-4 -14,-10l39 0c1,-20 -8,-32 -27,-32zm-21 46c0,0 1,0 1,1 0,0 0,0 0,0 0,0 0,0 0,-1 0,0 0,0 0,-1l0 0c0,0 0,0 0,0 1,-1 1,-1 0,-2 0,0 0,-1 1,-1 0,0 0,-1 -1,-1 1,-2 1,-5 1,-7 0,0 0,0 0,0 0,1 -1,2 -1,3 0,1 0,1 -1,1 0,1 0,2 0,3l0 0c1,0 1,0 1,0 0,1 -1,3 -1,5zm1 1l0 0c0,0 0,0 0,0zm7 -25l0 0 0 0 0 0 0 0zm5 -14l0 0 0 0 0 1 0 -1zm0 1c0,0 0,0 -1,0l0 1c1,0 1,-1 1,-1zm-7 15l0 0 0 0zm0 11l-1 -1 0 1 1 0 0 0zm-3 -4c-1,0 -1,0 -1,1l0 0c0,0 0,0 1,-1zm-9 0l0 0 0 0 0 0c0,0 0,0 0,0zm74 -31l-15 0 0 54 15 0 0 -26c0,-9 7,-15 18,-14l0 -15c-8,1 -14,4 -18,11l0 -10z"/>
   <path class="fil1" d="M175 103l-1 0 0 -1 1 0 0 1zm-1 2l0 0 0 -1 0 0 0 1zm-21 -8l0 0 0 -1 0 0 0 1zm53 -88c-1,2 -2,2 -3,2 -1,0 -1,0 -2,-1 0,0 -1,-1 -1,-1 0,-1 0,-1 0,-1 -1,0 -1,0 -1,0 0,0 0,0 0,0 -1,0 -2,-1 -3,-2 0,0 0,-1 1,-3 0,0 0,-1 1,-2 0,-1 1,-1 1,-1 1,0 2,0 3,1 1,1 2,1 2,3 0,0 0,0 0,1 0,0 0,1 0,1 0,0 0,0 0,1 -1,0 -1,1 -1,1l0 1c0,0 1,-1 1,-1 0,0 0,0 1,0 0,0 0,0 1,1zm-19 -1c-1,1 -2,1 -3,1 0,0 -1,0 -1,0 0,-1 0,-1 0,-1 0,0 0,0 -1,0 0,0 0,0 0,0 1,0 1,-1 1,-2l1 1c0,0 0,0 1,-1l1 0c0,0 0,1 1,2zm0 2l0 1c0,0 0,-1 -1,-2 0,0 1,1 1,1zm1 6c0,0 -1,0 -2,0 0,0 1,0 1,-1 0,0 0,0 1,1zm-6 -2l0 0 0 -1 0 0 0 1zm-12 -3l0 0 0 0 0 0 0 0zm3 19l0 0 0 0zm-21 -17l0 0 0 0zm37 37l0 0 0 0 0 0 0 0zm-43 -23l0 0 0 -1 0 0 0 1zm52 -15c-1,2 -2,4 -3,7l0 0c0,0 1,0 2,-1 0,0 0,0 0,1 0,0 -1,2 -2,6 0,1 -1,3 -2,5 0,2 -1,4 -2,8 -1,0 -1,1 -1,2 -2,5 -3,9 -3,12 0,0 0,0 0,0 1,0 1,0 1,-1 0,0 2,-4 4,-12 1,0 1,0 1,0 0,1 -1,3 -1,4 -3,10 -5,20 -6,29 0,0 -1,0 -1,0 0,-1 1,-3 1,-5l0 -1c-1,4 -3,11 -4,20 0,0 0,1 0,1 -1,1 -1,1 0,2 -1,-3 -1,-6 0,-9 0,-2 0,-2 0,-2 0,-1 0,-2 0,-2 0,0 0,0 0,-1 0,0 0,0 0,0 0,0 0,0 0,0 0,0 0,0 0,-1 0,0 0,0 0,-1l0 0c0,0 0,0 0,0 1,-1 1,-1 0,-2 0,0 0,-1 1,-1 0,0 0,-1 -1,-1 1,-2 1,-5 1,-7 0,0 0,0 0,0 0,1 -1,2 -1,3 0,1 0,1 -1,1 0,1 0,2 0,3l0 0c1,0 1,0 1,0 0,2 -1,5 -1,9 0,1 0,2 0,3 0,0 -1,0 -1,0 0,1 0,1 1,1 0,0 0,1 0,1 0,0 0,0 -1,0 0,0 0,0 0,0 0,0 0,1 0,3 -1,0 -1,1 -1,2 0,1 1,1 1,2 0,0 1,0 1,0l0 2c0,-1 -1,-1 -1,-2 0,1 0,1 0,1 0,0 0,0 0,0l2 16c0,0 0,0 0,1 -1,0 -1,-1 -1,-2 0,0 -1,-1 -1,-1 0,0 0,-1 -1,-2 0,0 0,0 0,0 0,0 0,0 0,0 0,0 0,1 0,1 -1,0 -1,0 -1,0 0,0 0,1 1,2 0,1 0,2 0,2 -1,0 -1,-1 -1,-1 0,0 0,-1 0,-1 0,0 0,0 0,-1 -1,0 -1,-1 -1,-1 0,-1 0,-1 0,-2 0,-2 -1,-4 -1,-6 0,-1 0,-1 0,-2 0,0 0,-1 0,-1 0,-1 0,-2 0,-3 -1,-4 -1,-7 -1,-8 0,-2 0,-3 0,-5 0,-2 0,-2 0,-2 -1,1 -1,2 -1,3 0,0 0,-1 0,-2 0,0 -1,0 -1,1 1,1 1,1 1,2 0,0 0,0 0,0 0,0 0,0 -1,0 0,-1 0,-2 0,-4 0,1 -1,3 -1,4 0,0 0,1 1,2 0,2 0,3 0,3 0,2 0,3 0,2 0,0 0,2 0,4 0,0 0,0 0,0 0,0 0,0 1,2 -1,0 -1,0 -1,0 0,0 1,1 1,3 1,2 1,3 1,3 0,0 0,0 0,1 0,0 0,0 0,0 -1,0 -1,0 -2,0 1,0 1,0 1,0 0,-1 -1,-1 -1,-3 0,0 0,1 0,3 0,-1 -1,-3 -2,-7 0,-1 -1,-2 -1,-4 0,0 0,0 0,0 0,0 0,0 0,0 0,0 0,0 0,0 0,0 0,0 0,0 0,0 0,-1 0,-1 0,0 0,0 0,-1 -1,0 -1,0 -1,-1 0,0 -1,-1 -1,-2 0,0 1,0 1,-2l0 0c-1,0 -1,0 -1,0 0,-1 0,-2 1,-3 0,0 -1,-1 -1,-3 0,-2 0,-4 1,-7 0,-4 0,-6 0,-8 -1,0 -1,1 -1,1 0,0 0,-1 1,-2 0,0 -1,0 -1,0 0,-2 1,-3 0,-4 0,0 0,0 1,0 0,0 -1,0 -1,0 0,0 0,0 0,0 0,0 0,0 0,0 0,0 0,0 0,1 -1,-1 -1,-1 -2,0 0,-1 0,-1 0,-1 0,0 0,0 0,0 -1,0 -2,1 -3,1 -1,0 -2,0 -3,0 0,1 -1,1 -1,1 0,1 0,1 0,1 0,2 0,4 0,7 -1,1 -1,4 -1,7 0,1 0,6 0,14 0,0 0,1 0,4 0,1 0,2 1,4 0,2 0,4 0,5 0,2 0,4 0,4 0,0 0,0 0,0 0,0 0,0 -1,1 0,0 0,0 0,0 0,-2 0,-4 -1,-7 0,-1 0,-1 0,-1 0,-1 0,-2 0,-4l-1 0c-1,3 -1,4 -1,4 0,0 0,1 0,3 1,3 1,4 1,4l0 1c-1,0 -1,0 -1,0 0,-2 -1,-5 -1,-10 0,0 0,0 0,-1 -1,1 -1,1 -1,2 0,0 -1,-1 -1,-3 0,-2 0,-3 0,-4 0,0 0,0 0,0 -1,1 -1,1 -1,1 0,-1 0,-2 0,-3 0,0 0,0 0,0 0,1 0,2 0,4 0,1 0,1 0,1 0,0 0,0 1,0 0,3 0,5 0,7l0 3c0,0 0,0 0,0 0,-1 -1,-4 -1,-9 0,0 -1,0 -1,0 0,0 -1,0 -1,0 0,-3 -1,-5 -1,-6l0 0c0,0 0,1 0,1 0,1 0,3 0,6 -1,-1 -1,-2 -1,-4 0,-1 0,-1 0,-1l-1 0c1,-2 0,-6 0,-13 -1,0 -1,0 -1,0 0,0 0,-1 0,-2 0,-1 0,-2 0,-3 -1,0 -1,1 -1,1 0,4 1,10 1,19l0 2 -1 -12c0,1 -1,1 -1,1 0,0 0,0 1,0 0,2 0,5 0,8 0,-1 -1,-6 -2,-16 1,-2 1,-4 0,-7l0 -7c0,0 0,-1 0,-4 0,-4 1,-10 2,-19 0,-3 1,-6 2,-9l-3 19 1 0c0,-1 0,-1 1,-2 0,0 0,0 0,0 0,0 0,0 0,0 0,-1 0,-2 0,-2 1,-1 1,-1 1,-1 0,-4 1,-9 3,-16 0,-5 1,-8 1,-10 0,0 0,0 0,0 1,0 1,-1 1,-2 0,-1 1,-1 1,-2 1,-4 4,-7 9,-10 0,0 0,0 0,0 0,1 -1,2 -2,3 -2,1 -2,2 -2,2 0,0 0,0 0,0 0,0 0,0 0,0 0,0 0,1 0,1 0,0 0,0 0,0 0,0 0,0 0,0 1,0 2,-1 4,-3l0 0c1,1 1,1 0,2l1 0c0,0 0,0 0,-1 0,0 1,0 1,0 1,0 1,0 2,0 0,1 0,1 0,1 0,0 -1,0 -1,0 0,0 -1,0 -2,1 1,0 1,0 2,0 0,0 -1,0 -2,1 0,0 0,0 1,0 0,0 0,1 0,1 0,0 1,-1 1,-1 0,-1 1,-1 1,-1 0,0 1,1 2,3 0,-1 1,-1 2,-1 0,2 0,3 1,3 -1,0 -1,1 -2,2 0,0 1,0 1,0 0,0 0,0 0,1 -1,0 -1,0 -1,0 0,1 1,1 1,1 -1,0 -1,1 -1,2 -1,1 -1,2 -1,3 0,0 -1,3 -1,6 0,1 -1,2 -1,3 0,1 -1,2 -1,2 0,1 1,1 1,1 -1,0 -1,0 -1,0 0,1 0,1 0,1 1,0 1,0 2,0 1,0 2,0 2,0 0,1 0,1 -2,1 -1,0 -2,0 -2,1 0,0 0,0 0,0 0,0 1,0 1,0 1,0 1,0 1,0 0,0 0,0 0,0 0,0 0,0 0,0 0,0 1,0 1,0 1,0 1,0 1,0l1 0c0,0 0,0 1,0 0,0 0,0 0,0 0,0 1,0 1,0 0,0 0,0 0,0 0,0 0,1 0,1 -2,0 -5,0 -8,1 0,0 1,1 1,1l5 0c0,0 1,0 1,0 0,0 0,0 0,0 1,0 2,0 3,-1 1,-5 3,-10 4,-13 1,-2 2,-5 4,-9 0,-1 1,-2 2,-3 -1,-1 0,-1 0,-2 0,0 0,0 1,0 0,1 0,1 0,1 0,0 0,0 0,-1 1,1 1,1 1,1 0,0 1,0 1,-1 0,0 0,0 0,0 0,0 0,0 0,1 1,0 2,1 2,1 0,0 -1,0 -1,1 0,0 0,1 1,1 1,0 1,0 1,0 1,0 1,0 1,0 0,1 0,2 1,3 0,-1 1,-2 1,-3 0,-1 -1,-1 -1,-1 -1,0 -1,0 -1,0 0,0 0,0 0,0 0,0 0,-1 -2,-2 0,0 0,-1 0,-2 1,0 1,0 1,1 0,0 0,0 0,0 0,0 0,0 0,-1 0,0 1,1 1,1 0,0 0,0 1,1 1,-2 2,-2 3,-2 0,0 0,0 1,1 0,0 1,0 1,1 0,0 -1,0 -1,1 0,0 0,1 0,1l0 0c0,0 0,0 -1,1 0,0 0,0 0,0 0,1 0,1 -1,2l0 1c1,0 1,-1 2,-3 0,0 0,-1 1,-1 0,-1 0,-1 1,-2 0,0 0,0 0,0 0,0 0,0 1,0zm-23 47l-1 1 0 0 1 -1 0 0zm-31 -11l0 1 -1 0 0 -1 1 0zm30 34c0,0 0,0 0,-1 0,0 0,0 0,0 0,0 0,-1 0,-1 -1,0 -1,1 -1,1 0,0 1,-1 1,-1 0,0 0,-1 0,-1 0,1 0,2 0,3zm7 7c0,0 0,0 -1,0 0,0 0,0 0,-1 0,0 0,0 0,1 0,0 0,0 0,-1 1,0 1,0 1,0l0 1zm-7 -6l-1 0 0 -1 0 0 1 1zm0 1l0 0 0 -1 0 0 0 1zm8 8l0 0 0 0 0 0 0 0zm-8 -6l0 0 0 -1 0 0 0 1zm-7 -5l0 0 0 -1 0 0 0 1zm8 7l0 0 0 0 0 0 0 0zm-7 -4l-1 0 0 -1 1 0 0 1zm0 1l-1 0 0 0 1 0 0 0zm5 11l0 0 0 0 0 0 0 0zm-25 -24c0,1 0,3 0,4 0,0 0,-1 0,-1 0,-1 0,-1 0,-1 0,-1 0,-1 0,-2zm-2 2l-1 0 0 0 1 0 0 0zm0 1l-1 2 0 0 0 -2 1 0zm-3 -1l0 0 0 0 0 0 0 0zm3 4l-1 0 0 -1 1 0 0 1zm6 12l-1 0 0 -1 1 0 0 1zm2 3l-1 0 0 -1 1 0 0 1zm34 -78l0 -1 0 0 0 1 0 0zm6 21l0 0 0 0 0 1 0 -1zm-26 -26l0 0 -1 1 1 0 0 -1zm26 27c0,0 0,0 -1,0l0 1c1,0 1,-1 1,-1zm-7 15l0 0 0 0zm0 11l-1 -1 0 1 1 0 0 0zm-3 -4c-1,0 -1,0 -1,1l0 0c0,0 0,0 1,-1zm-9 5c-1,-1 -2,-1 -1,-1 -1,0 -1,0 -1,1 0,0 0,0 1,0 0,0 0,0 0,0 0,0 1,1 1,1 0,0 0,-1 0,-1zm-7 -4l0 -1 0 0 0 1 0 0zm-6 -3l0 -1 -1 0 0 1 1 0zm12 13l0 -1 0 0 0 1 0 0zm1 4c0,0 0,-1 0,-4 0,0 0,1 0,1 -1,0 -1,0 -1,0 0,0 0,0 0,0 0,0 0,0 0,-1 0,1 0,3 -1,5 0,-1 0,-1 0,-1l0 1c0,0 1,0 1,0 0,0 0,0 0,-1 0,-1 0,-2 0,-2 0,0 0,0 1,0 0,0 0,1 0,1 0,0 0,0 0,0 0,1 0,1 0,1zm-8 -6l0 -1 0 0 0 1 0 0zm-22 -20l0 -1 -1 0 0 1 1 0zm37 42c0,0 0,0 0,-1 0,1 0,1 -1,1 1,0 1,0 1,1 0,0 0,-1 0,-1zm-36 4l-1 -2 0 0 0 2 1 0z"/>
  </g>
 </g>
</svg>
