<?xml version="1.0" encoding="UTF-8"?>
<!DOCTYPE svg PUBLIC "-//W3C//DTD SVG 1.1//EN" "http://www.w3.org/Graphics/SVG/1.1/DTD/svg11.dtd">
<!-- Creator: CorelDRAW X8 -->
<svg xmlns="http://www.w3.org/2000/svg" xml:space="preserve" width="36" height="36" version="1.1" style="shape-rendering:geometricPrecision; text-rendering:geometricPrecision; image-rendering:optimizeQuality; fill-rule:evenodd; clip-rule:evenodd"
viewBox="0 0 305 305"
 xmlns:xlink="http://www.w3.org/1999/xlink">
 <defs>
  <style type="text/css">
   <![CDATA[
    .fil0 {fill:white}
   ]]>
  </style>
 </defs>
 <g id="Layer_x0020_1">
  <metadata id="CorelCorpID_0Corel-Layer"/>
  <path class="fil0" d="M152 0c85,0 153,68 153,152 0,85 -68,153 -153,153 -84,0 -152,-68 -152,-153 0,-84 68,-152 152,-152zm16 220l-35 0c-1,0 -2,-1 -3,-1l-8 0c0,0 -1,0 -1,0 -1,0 -2,0 -3,0 -5,0 -9,-1 -14,-3 -4,-1 -7,-3 -10,-7 -3,-3 -5,-7 -6,-11 -1,-2 -2,-6 -2,-9 0,-1 0,-1 0,-2l-1 -6c0,-1 0,-2 0,-3 0,0 0,-1 0,-1l0 -49c0,0 0,-1 0,-1 0,-1 0,-2 0,-3 0,-1 1,-1 1,-2 0,0 0,-1 0,-1 0,-1 0,-2 0,-3 0,-1 0,-2 0,-3 0,-2 0,-4 1,-6 1,-4 3,-9 5,-12 1,0 1,-1 1,-1l1 -1c1,-1 2,-2 3,-3 4,-3 10,-5 15,-6 2,0 4,0 6,0 1,0 2,0 3,0l16 -1 34 0c3,0 6,0 8,0 1,0 1,0 2,0 2,0 4,1 7,1l2 0c1,0 2,0 3,0 5,1 10,3 15,6 1,1 2,2 3,4 4,4 6,10 7,16 1,1 1,3 1,4 0,0 0,1 0,1 0,1 0,3 0,4 0,0 0,0 0,1 0,1 0,1 0,2 0,1 0,2 0,3 0,0 0,1 0,1l0 48c0,1 0,1 0,2 0,1 0,2 0,3 0,1 0,1 0,2 0,6 0,11 -3,17 0,1 0,2 -1,3 -1,2 -2,3 -3,6 -1,0 -1,1 -2,1 -4,5 -10,7 -17,8 -1,1 -2,1 -3,1 -1,0 -2,0 -3,0l-4 0c-2,0 -3,0 -5,0 -1,0 -1,0 -2,0l-8 1zm-98 -83l0 30c0,6 1,11 1,17 0,0 0,0 0,1 0,4 0,10 1,14 1,1 1,2 1,3 0,1 1,1 1,2 0,0 0,1 0,1 2,4 2,3 3,6 1,2 3,6 5,7l4 5c3,2 7,4 10,6 2,1 4,2 5,2 0,0 1,0 1,0 3,1 5,2 7,2 1,0 3,0 4,1 1,0 4,0 5,0l7 0c0,0 1,0 2,0l2 0c3,0 5,0 8,0l40 0c0,0 0,0 1,0l6 0c0,0 0,0 1,0l5 0c3,-1 5,-1 9,-2 3,0 6,-1 9,-3 4,-2 7,-3 10,-6 1,-1 3,-2 3,-3l2 -2c0,0 0,0 1,-1l1 -2c1,-1 2,-3 3,-5 1,-1 2,-3 2,-5l1 -1c1,-3 1,-5 2,-9 0,-1 0,-3 1,-5 0,-1 0,-3 0,-4 0,0 0,-1 0,-1 0,-1 0,-1 0,-1 0,-1 0,-3 0,-4 0,-1 0,-2 0,-2 0,-1 0,-1 0,-1 0,0 0,-1 0,-1 0,-3 0,-6 0,-9l0 -30c0,-5 0,-11 0,-16 0,0 0,0 0,-1 0,0 0,-1 0,-1 0,0 0,0 0,-1l0 -3c0,-1 0,-1 0,-2 -1,-2 -1,-5 -2,-7 0,-4 -2,-7 -3,-10 -2,-4 -4,-8 -7,-11 -1,0 -2,-1 -2,-2 -1,0 -1,0 -1,-1l-3 -2c-5,-4 -11,-6 -17,-8 -2,0 -5,0 -7,-1l-8 0c-1,0 -3,0 -4,0 -1,-1 -12,-1 -12,-1l-31 0c-3,0 -5,0 -8,0l-4 1c-2,0 -5,0 -6,0 -2,0 -4,0 -6,0 -3,1 -5,1 -7,1 -1,1 -2,1 -4,1 0,0 -1,1 -1,1 -2,0 -4,1 -6,2 -2,1 -5,3 -7,5 -1,0 -2,1 -2,2 0,0 -1,0 -1,0l-1 1c0,0 0,0 0,1 -1,1 -3,3 -4,4 0,0 -1,1 -2,2 0,1 -1,2 -1,3 -1,2 -2,4 -3,5 0,1 0,1 0,1 -2,5 -2,8 -3,13 0,2 0,4 0,6 0,0 0,1 0,1 0,0 0,0 0,1 0,1 0,3 0,4 -1,0 0,1 0,2 0,0 -1,0 -1,1 0,0 0,1 0,1 0,3 0,5 0,8zm55 15c0,0 0,-1 0,-1 0,-1 0,-1 0,-2 1,-2 1,-3 2,-5 0,-2 1,-3 2,-5 1,-2 3,-5 5,-7 1,-1 3,-3 5,-3 1,-1 1,-1 2,-2 2,0 3,-1 5,-1 1,0 2,-1 3,-1l3 0c2,0 5,0 7,1 3,0 6,2 9,4 3,2 6,5 7,8 1,1 2,2 2,3 2,3 2,5 3,8l0 3c0,2 -1,5 -1,7 -1,3 -1,4 -3,7 0,1 -2,3 -3,4 -1,1 -2,2 -3,3 -1,1 -2,2 -3,2 -2,2 -3,2 -6,3 -1,1 -2,1 -2,1 -2,0 -5,1 -7,1 -1,0 -4,-1 -6,-1 -4,-1 -9,-3 -12,-6 0,-1 -1,-2 -2,-2 -1,-1 -2,-2 -3,-4 -2,-4 -3,-7 -4,-11 0,-1 0,-1 0,-2 0,-1 0,-1 0,-2zm27 43c1,0 1,0 2,-1 0,0 0,1 1,0 1,0 2,0 2,0 3,0 6,-1 9,-2 1,0 3,-1 4,-1 0,0 1,-1 1,-1 1,0 2,-1 2,-1 1,0 1,-1 2,-1 2,-1 3,-2 5,-4l2 -2c1,-1 2,-1 2,-2l3 -4c2,-2 3,-5 5,-8 1,-3 2,-7 2,-11 0,0 0,-1 0,-2l1 -3c0,0 0,0 -1,-1 0,0 1,-1 0,-1 0,-5 -1,-11 -3,-15l-2 -3c-1,-2 -1,-3 -2,-4 -1,-1 -1,-2 -2,-3l-2 -2c-1,-1 -3,-2 -4,-3 -1,-1 -2,-2 -4,-3 -3,-2 -4,-3 -7,-4 0,0 -1,0 -1,0 -3,-1 -6,-2 -10,-2 -4,-1 -5,-1 -10,0 -5,0 -9,2 -14,4l-1 1c-4,2 -7,4 -9,7 -2,1 -3,2 -3,3l-4 6c-1,1 -2,3 -3,5l-1 2c-1,3 -1,7 -2,11 0,0 0,1 0,1l0 3c0,0 0,0 0,1 1,4 1,7 2,11 1,1 1,1 1,2l2 3c2,4 5,8 8,11 1,1 2,2 3,3 0,0 0,1 1,1 0,0 1,1 1,1 4,2 7,4 11,5l2 1c2,0 4,1 6,1 2,0 4,1 5,1zm34 -87c0,2 1,3 1,5 1,1 2,3 4,4 4,2 9,2 12,-1 4,-4 4,-10 0,-14 -3,-4 -8,-4 -12,-2 -1,1 -1,1 -1,1 -2,2 -4,4 -4,7z"/>
 </g>
</svg>
