<?xml version="1.0" encoding="UTF-8"?>
<!DOCTYPE svg PUBLIC "-//W3C//DTD SVG 1.1//EN" "http://www.w3.org/Graphics/SVG/1.1/DTD/svg11.dtd">
<!-- Creator: CorelDRAW X8 -->
<svg xmlns="http://www.w3.org/2000/svg" xml:space="preserve" width="36" height="36" version="1.1" style="shape-rendering:geometricPrecision; text-rendering:geometricPrecision; image-rendering:optimizeQuality; fill-rule:evenodd; clip-rule:evenodd"
viewBox="0 0 305 305"
 xmlns:xlink="http://www.w3.org/1999/xlink">
 <defs>
  <style type="text/css">
   <![CDATA[
    .fil0 {fill:white}
   ]]>
  </style>
 </defs>
 <g id="Layer_x0020_1">
  <metadata id="CorelCorpID_0Corel-Layer"/>
  <path class="fil0" d="M97 294c-2,-19 -3,-30 1,-48l15 -64c3,-11 0,-10 -2,-20 -7,-47 37,-60 45,-34 4,12 -3,32 -7,43 -4,16 -9,31 4,39 21,15 50,-5 59,-37 26,-101 -98,-117 -125,-49 -14,37 8,59 8,63 0,3 -4,19 -5,21 -9,1 -20,-13 -24,-19 -5,-9 -9,-21 -11,-33 -1,-13 1,-27 5,-38 4,-13 9,-20 16,-28 5,-7 15,-15 23,-20 10,-5 19,-9 32,-11 25,-6 53,-2 73,9 18,10 32,25 40,46 9,24 6,51 -3,74 -13,32 -45,56 -78,51 -17,-3 -20,-9 -28,-17 -4,19 -10,42 -18,59 -3,5 -8,12 -10,17 5,3 24,6 31,6 12,1 24,1 36,-1 20,-3 41,-10 56,-19 6,-4 16,-11 21,-16 14,-13 25,-24 34,-41 5,-9 8,-17 12,-27 26,-78 -16,-165 -94,-192 -41,-14 -89,-10 -124,10 -11,7 -23,15 -32,24 -12,12 -16,16 -25,31 -28,45 -29,105 -5,149 8,17 16,26 28,38 1,2 3,4 4,5 10,8 31,25 48,29z"/>
 </g>
</svg>
