<?xml version="1.0" standalone="no"?><!-- Generator: Gravit.io --><svg xmlns="http://www.w3.org/2000/svg" xmlns:xlink="http://www.w3.org/1999/xlink" style="isolation:isolate" viewBox="410 199 36 36" width="36" height="36"><defs><clipPath id="_clipPath_bMRcFoPW6evWfmJpoGoPF5jRNffvNBJ4"><rect x="410" y="199" width="36" height="36"/></clipPath></defs><g clip-path="url(#_clipPath_bMRcFoPW6evWfmJpoGoPF5jRNffvNBJ4)"><path d=" M 410 217 C 410 207.066 418.066 199 428 199 C 437.934 199 446 207.066 446 217 C 446 226.934 437.934 235 428 235 C 418.066 235 410 226.934 410 217 Z  M 431.265 209.304 Q 433.546 209.281 434.567 210.516 Q 435.914 210.227 436.931 209.607 L 436.946 209.653 C 436.713 210.315 436.326 210.918 435.779 211.365 L 435.779 211.365 L 435.34 211.683 L 435.537 211.698 C 436.192 211.597 436.841 211.426 437.446 211.152 L 437.446 211.152 L 437.4 211.228 C 437.039 211.773 436.606 212.269 436.113 212.698 L 436.113 212.698 L 435.552 213.137 Q 435.619 215.128 435.158 216.591 Q 434.182 219.857 431.962 221.878 Q 429.334 224.705 423.872 224.696 Q 420.636 224.417 418.554 222.984 L 418.781 222.969 C 418.853 223.07 419.018 223.028 419.115 222.999 L 419.115 222.999 L 420.115 222.999 Q 422.716 222.707 424.25 221.348 Q 422.563 221.217 421.675 220.288 L 421.66 220.242 L 421.524 220.136 C 421.114 219.738 420.838 219.226 420.675 218.682 L 420.675 218.682 L 420.902 218.667 C 420.937 218.729 421.028 218.712 421.084 218.697 L 421.084 218.697 L 421.448 218.727 C 421.75 218.723 422.054 218.687 422.342 218.591 L 422.342 218.591 L 422.326 218.545 C 421.657 218.4 421.014 218.109 420.524 217.621 L 420.524 217.621 L 420.448 217.515 L 420.342 217.44 Q 419.374 216.544 419.281 214.773 Q 419.319 214.69 419.357 214.758 Q 419.991 215.154 420.993 215.182 L 420.963 215.122 C 420.707 214.986 420.483 214.795 420.312 214.561 L 420.312 214.561 L 420.296 214.516 L 420.221 214.47 Q 419.379 213.57 419.312 211.895 Q 419.369 210.756 419.842 210.031 L 419.918 210.077 L 420.418 210.668 L 420.524 210.743 L 420.63 210.88 L 420.675 210.895 L 420.751 211.001 C 422.587 212.96 425.228 213.813 427.841 214.061 L 427.841 214.061 L 427.856 213.955 Q 427.723 213.543 427.765 212.955 Q 427.994 211.064 429.204 210.153 Q 429.984 209.477 431.265 209.304 Z " fill-rule="evenodd" fill="rgb(255,255,255)"/></g></svg>